<svg width="16" height="16" viewBox="0 0 16 16" fill="none" xmlns="http://www.w3.org/2000/svg">
<g clip-path="url(#clip0_201_787)">
<path d="M15.7248 14.4865L12.855 11.6364C15.0958 8.76659 14.86 4.67813 12.285 2.10319C10.9287 0.746929 9.12039 0 7.1941 0C5.26781 0 3.45946 0.746929 2.10319 2.10319C0.746929 3.45946 0 5.26781 0 7.1941C0 9.12039 0.746929 10.9287 2.10319 12.285C3.45946 13.6413 5.26781 14.3882 7.1941 14.3882C8.78624 14.3882 10.3587 13.8575 11.6167 12.855L14.4668 15.7445C14.6437 15.9214 14.86 16 15.0958 16C15.3317 16 15.5479 15.9017 15.7248 15.7445C16.0786 15.4103 16.0786 14.8403 15.7248 14.4865ZM12.6192 7.1941C12.6192 8.64865 12.0491 10.0049 11.027 11.027C10.0049 12.0491 8.62899 12.6192 7.1941 12.6192C5.75921 12.6192 4.38329 12.0491 3.36118 11.027C2.33907 10.0049 1.76904 8.62899 1.76904 7.1941C1.76904 5.73956 2.33907 4.38329 3.36118 3.36118C4.38329 2.33907 5.75921 1.76904 7.1941 1.76904C8.64865 1.76904 10.0049 2.33907 11.027 3.36118C12.0491 4.38329 12.6192 5.73956 12.6192 7.1941Z" fill="#505050"/>
</g>
<defs>
<clipPath id="clip0_201_787">
<rect width="16" height="16" fill="white"/>
</clipPath>
</defs>
</svg>
